<?xml version="1.0" encoding="iso-8859-1"?>
<!-- Generator: Adobe Illustrator 19.0.0, SVG Export Plug-In . SVG Version: 6.00 Build 0)  -->
<svg version="1.1" id="Capa_1" xmlns="http://www.w3.org/2000/svg" xmlns:xlink="http://www.w3.org/1999/xlink" x="0px" y="0px"
	 viewBox="0 0 495.2 495.2" style="enable-background:new 0 0 495.2 495.2;" xml:space="preserve">
<polygon style="fill:#003893;" points="441.6,247.2 53.6,0 53.6,495.2 432,495.2 182.4,247.2 "/>
<polygon style="fill:#DC143C;" points="411.2,239.2 61.6,15.2 61.6,132.8 61.6,236.8 61.6,487.2 411.2,487.2 161.6,239.2 "/>
<polyline style="fill:#C10633;" points="411.2,487.2 161.6,239.2 411.2,239.2 61.6,15.2 61.6,132.8 61.6,239.2 "/>
<g>
	<polyline style="fill:#A80030;" points="411.2,239.2 61.6,15.2 61.6,135.2 	"/>
</g>
<g>
	<path style="fill:#FFFFFF;" d="M146.4,224c39.2,0,70.4-31.2,70.4-70.4c-6.4,16-17.6,28.8-31.2,37.6l-6.4-4.8l12-8.8l-14.4-4l0,0
		l7.2-12.8l-14.4,2.4l0,0l0,0l0,0l2.4-14.4l-12.8,7.2l0,0l-4-14.4l-8.8,12l-8.8-12l-4,14.4l0,0l-12.8-7.2l2.4,14.4l0,0l-14.4-2.4
		l7.2,12.8l0,0l-14.4,4l12,8.8l-6.4,4.8c-13.6-8-25.6-20.8-31.2-37.6C76,192,108,224,146.4,224z"/>
	<polygon style="fill:#FFFFFF;" points="212,399.2 192.8,373.6 192.8,373.6 220.8,361.6 189.6,348.8 189.6,348.8 210.4,323.2 
		180,327.2 184,293.6 158.4,311.2 159.2,311.2 146.4,284 133.6,314.4 133.6,314.4 108.8,295.2 112.8,327.2 81.6,323.2 101.6,348.8 
		101.6,348.8 72,362.4 100.8,375.2 100.8,375.2 81.6,400 112.8,395.2 112.8,395.2 108.8,427.2 134.4,408 134.4,408 146.4,436.8 
		159.2,407.2 159.2,407.2 184,426.4 180.8,395.2 180.8,395.2 	"/>
</g>
<g>
	<path style="fill:#DDDDDD;" d="M185.6,190.4l-6.4-4.8l12-8.8l-14.4-4L184,160l-14.4,2.4L172,148l-12.8,7.2l-4-14.4l-8.8,12
		l-4.8-5.6V224c8,0,4.8,0,4.8,0c39.2,0,70.4-31.2,70.4-70.4C210.4,168.8,199.2,182.4,185.6,190.4z"/>
	<polygon style="fill:#DDDDDD;" points="192.8,373.6 192.8,373.6 220.8,361.6 189.6,348.8 189.6,348.8 210.4,323.2 180,327.2 
		184,293.6 158.4,311.2 159.2,311.2 146.4,284 144,289.6 144,430.4 146.4,436.8 159.2,407.2 158.4,407.2 184,426.4 180,395.2 
		212,399.2 	"/>
</g>
<g>
</g>
<g>
</g>
<g>
</g>
<g>
</g>
<g>
</g>
<g>
</g>
<g>
</g>
<g>
</g>
<g>
</g>
<g>
</g>
<g>
</g>
<g>
</g>
<g>
</g>
<g>
</g>
<g>
</g>
</svg>
