<svg height="512pt" viewBox="0 0 512 512" width="512pt" xmlns="http://www.w3.org/2000/svg"><path d="m323.226562 295.550781h100.535157v32.660157h-100.535157zm0 0"/><path d="m88.316406 417.480469h-88.2734372l-.015625 10.328125c-.2070318 3.703125.7578122 7.089844 3.5468752 9.707031l75.410156 70.886719c2.496094 2.34375 5.882813 3.597656 9.335937 3.597656h12.984376v-82.703125c-.003907-6.527344-5.816407-11.816406-12.988282-11.816406zm0 0"/><path d="m496.453125 0h-480.957031c-8.558594 0-15.496094 6.714844-15.496094 15v372.480469h88.316406c23.703125 0 42.984375 18.757812 42.984375 41.816406v82.703125h365.152344c8.558594 0 15.496094-6.714844 15.496094-15v-482c0-8.285156-6.9375-15-15.496094-15zm-117.664063 96.785156c0-21.546875 18.816407-29.734375 36.769532-29.734375 7.613281 0 28.582031 1.4375 28.582031 12.640625 0 3.878906-2.585937 11.777344-8.902344 11.777344-5.171875 0-7.898437-5.457031-19.679687-5.457031-10.195313 0-14.363282 4.164062-14.363282 8.617187 0 14.363282 45.53125 11.636719 45.53125 47.828125 0 20.683594-15.082031 31.886719-35.90625 31.886719-18.816406 0-34.617187-9.191406-34.617187-18.671875 0-4.882813 4.3125-12.0625 9.769531-12.0625 6.75 0 11.058594 10.628906 24.417969 10.628906 6.605469 0 13.929687-2.585937 13.929687-9.480469 0-17.378906-45.53125-14.363281-45.53125-47.972656zm-126.113281-28.871094c3.445313 0 6.320313 1.148438 7.179688 4.164063l21.832031 73.683594 11.347656-48.546875c.863282-3.875 5.890625-5.886719 10.773438-5.886719 4.882812 0 9.910156 2.011719 10.773437 5.886719l11.347657 48.546875 21.832031-73.683594c.859375-3.015625 3.730469-4.164063 7.179687-4.164063 6.464844 0 14.507813 4.023438 14.507813 8.90625 0 .71875-.144531 1.4375-.289063 1.867188l-28.582031 87.613281c-1.722656 5.027344-8.1875 7.46875-14.792969 7.46875-6.464844 0-13.359375-2.441406-14.507812-7.46875l-7.46875-34.039062-7.46875 34.039062c-1.148438 5.027344-8.042969 7.46875-14.507813 7.46875-6.605469 0-13.214843-2.441406-14.792969-7.46875l-28.585937-87.613281c-.140625-.429688-.285156-1.148438-.285156-1.867188 0-4.882812 8.042969-8.90625 14.507812-8.90625zm-88.191406 6.894532c0-4.59375 4.882813-6.894532 9.765625-6.894532h51.132812c4.738282 0 6.75 5.027344 6.75 9.625 0 5.3125-2.441406 9.910157-6.75 9.910157h-38.492187v24.273437h21.542969c4.308594 0 6.75 4.164063 6.75 8.761719 0 3.878906-2.007813 8.472656-6.75 8.472656h-21.542969v24.417969h38.492187c4.308594 0 6.75 4.597656 6.75 9.910156 0 4.597656-2.011718 9.625-6.75 9.625h-51.132812c-4.882812 0-9.765625-2.300781-9.765625-6.894531zm-92.503906 0c0-4.738282 5.605469-6.894532 11.207031-6.894532 8.042969 0 11.058594.71875 16.515625 11.203126l23.269531 44.382812v-48.835938c0-4.738281 5.601563-6.75 11.203125-6.75 5.601563 0 11.203125 2.011719 11.203125 6.75v91.351563c0 4.597656-5.601562 6.894531-11.203125 6.894531-5.171875 0-9.769531-1.007812-12.496093-6.03125l-27.289063-49.695312v48.832031c0 4.597656-5.605469 6.894531-11.203125 6.894531-5.601562 0-11.207031-2.296875-11.207031-6.894531zm1.855469 131.46875h362.941406c8.558594 0 15.496094 6.714844 15.496094 15s-6.9375 15-15.496094 15h-362.941406c-8.558594 0-15.5-6.714844-15.5-15s6.941406-15 15.5-15zm160.53125 148.542968h-160.53125c-8.558594 0-15.5-6.714843-15.5-15 0-8.285156 6.941406-15 15.5-15h160.53125c8.558593 0 15.5 6.714844 15.5 15-.003907 8.285157-6.941407 15-15.5 15zm0-59.269531h-160.53125c-8.558594 0-15.5-6.71875-15.5-15 0-8.285156 6.941406-15 15.5-15h160.53125c8.558593 0 15.5 6.714844 15.5 15 0 8.28125-6.941407 15-15.5 15zm203.75 121.929688h-127.527344c-8.558594 0-15.496094-6.714844-15.496094-15 0-8.285157 6.9375-15 15.496094-15h127.523437c8.5625 0 15.5 6.714843 15.5 15 0 8.285156-6.9375 15-15.496093 15zm15.496093-74.269531c0 8.28125-6.9375 15-15.5 15h-127.523437c-8.558594 0-15.496094-6.71875-15.496094-15v-62.660157c0-8.285156 6.9375-15 15.496094-15h127.523437c8.5625 0 15.5 6.714844 15.5 15zm0 0"/></svg>